<svg xmlns="http://www.w3.org/2000/svg" viewBox="0 0 200 70"><path fill="#fff" d="M91.89 44.93v4.5H74.84V20.02h4.83v24.91h12.22zm24.41-18.2v22.69h-3.76l-.45-2.76c-2.05 2.08-4.92 3.32-8.23 3.32-6.76 0-11.81-5.11-11.81-11.91s5.05-11.89 11.81-11.89c3.34 0 6.24 1.26 8.3 3.38l.55-2.84h3.6zm-4.68 11.34c0-4.28-3.13-7.44-7.4-7.44s-7.43 3.2-7.43 7.44 3.15 7.44 7.43 7.44 7.4-3.17 7.4-7.44zm22.35 7.12v4.24h-3.47c-4.97 0-8.04-3.07-8.04-8.08V30.74h-4.06v-.9l7.89-8.39h.79v5.3h6.75v4h-6.71V41c0 2.7 1.51 4.21 4.25 4.21h2.59zm24.15-7.05c0 .51-.04 1.02-.1 1.53H139.6c.58 3.68 3.23 5.94 6.94 5.94 2.71 0 4.91-1.25 6.11-3.32h4.91c-1.81 4.79-5.95 7.7-11.02 7.7-6.63 0-11.66-5.12-11.66-11.9s5.01-11.9 11.66-11.9 11.57 5.35 11.57 11.95zm-18.4-2.26h13.72c-.84-3.45-3.43-5.48-6.89-5.48s-6.06 2.12-6.83 5.48zm42.3-.11v13.66h-4.66V36.72c0-4.12-1.79-6.31-5.2-6.31s-6.09 2.87-6.09 6.88v12.15h-4.66v-22.7h3.25l.91 3.17c1.72-2.29 4.52-3.68 7.85-3.68 5.31 0 8.62 3.96 8.62 9.54zm17.16 9.42v4.24h-3.47c-4.97 0-8.04-3.07-8.04-8.08V30.74h-4.06v-.9l7.89-8.39h.79v5.3h6.75v4h-6.71V41c0 2.7 1.51 4.21 4.25 4.21h2.59zM69.24.95v33.17L52.9 50.46V19.62l-27.32 3.5V6.78L69.24.95zM52.9 50.46v18.59L9.24 63.3V39.45l16.33-16.33v23.83l27.32 3.5z"/></svg>